<svg width="431" height="124" viewBox="0 0 431 124" fill="none" xmlns="http://www.w3.org/2000/svg">
<path d="M209.728 36.656C221.184 36.656 230.528 45.936 230.528 57.456C230.528 68.912 221.184 78.256 209.728 78.256H194.432H193.92V36.656H194.048H209.728ZM217.664 65.392C219.776 63.28 220.928 60.464 220.928 57.456C220.928 54.448 219.776 51.632 217.664 49.456C215.552 47.344 212.672 46.192 209.664 46.192H203.904V68.656H209.728C212.736 68.656 215.552 67.504 217.664 65.392ZM246.454 33.392V40.944H237.558V33.392H246.454ZM246.518 45.104V78H237.558V45.104H246.518ZM281.282 45.04H291.65L276.354 78H269.57L253.57 45.04H264.002L272.962 63.472L281.282 45.04ZM308.625 45.04C317.713 44.976 325.138 52.336 325.138 61.424C325.201 70.512 317.906 77.936 308.817 78C299.665 78.064 292.241 70.704 292.241 61.616C292.177 52.528 299.473 45.104 308.625 45.04ZM314.449 67.248C315.986 65.712 316.817 63.664 316.817 61.488C316.817 59.312 315.921 57.264 314.385 55.728C312.849 54.256 310.802 53.424 308.625 53.424C306.449 53.424 304.465 54.256 302.929 55.792C301.393 57.392 300.561 59.376 300.561 61.552C300.561 63.728 301.457 65.776 302.993 67.312C304.529 68.848 306.577 69.68 308.753 69.68C310.929 69.616 312.977 68.784 314.449 67.248ZM366.41 78H357.45V74.224C354.634 76.528 350.986 78 347.018 78C337.93 78.064 330.506 70.704 330.442 61.616C330.378 52.528 337.738 45.104 346.826 45.04C350.858 45.04 354.506 46.448 357.386 48.816V33.328H366.346L366.41 78ZM352.714 67.248C354.25 65.712 355.082 63.664 355.082 61.488C355.018 59.312 354.186 57.264 352.65 55.728C351.114 54.256 349.066 53.424 346.89 53.424C344.714 53.424 342.666 54.256 341.13 55.792C339.658 57.392 338.762 59.376 338.826 61.552C338.826 63.728 339.658 65.776 341.194 67.312C342.73 68.848 344.778 69.68 346.954 69.68C349.13 69.616 351.178 68.784 352.714 67.248ZM405.164 61.424C405.164 61.872 405.228 64.112 405.164 64.56L381.1 64.496C381.548 65.776 381.996 66.352 382.956 67.312C384.556 68.848 386.604 69.68 388.716 69.68C390.892 69.616 392.94 68.784 394.476 67.248C394.54 67.184 394.668 67.056 394.732 66.992L403.052 69.616C399.596 74.928 395.948 77.936 388.78 78C379.692 78.064 372.268 70.704 372.204 61.616C372.14 52.528 379.5 45.104 388.588 45.04C397.676 44.976 405.1 52.336 405.164 61.424ZM388.652 53.424C386.476 53.424 384.428 54.256 382.892 55.792C382.188 56.56 381.548 57.456 381.164 58.48H396.204C395.82 57.456 395.18 56.56 394.412 55.728C392.876 54.256 390.828 53.424 388.652 53.424Z" fill="white"/>
<path d="M112.86 33.5033L106.666 30.2411L100.142 42.6279L106.335 45.8901L109.597 39.6967L112.86 33.5033ZM162.37 67.493L165.742 73.6275L165.632 61.2996L162.37 67.493ZM109.597 39.6967L106.335 45.8901L159.108 73.6864L162.37 67.493L165.632 61.2996L112.86 33.5033L109.597 39.6967ZM162.37 67.493L158.998 61.3585L106.226 90.3633L109.597 96.4978L112.969 102.632L165.742 73.6275L162.37 67.493Z" fill="url(#paint0_linear_800_1996)"/>
<path d="M77.7725 39.6967L24.9999 67.493L77.7725 96.4978" stroke="url(#paint1_linear_800_1996)" stroke-width="14" stroke-linecap="square" stroke-linejoin="bevel"/>
<path d="M109.597 40.0996L78.1755 96.4978" stroke="url(#paint2_linear_800_1996)" stroke-width="14" stroke-linecap="square" stroke-linejoin="bevel"/>
<path d="M74.5103 88.9944L80.7037 92.2566L87.228 79.8698L81.0346 76.6076L77.7725 82.801L74.5103 88.9944ZM24.9999 55.0048L21.6282 48.8703L21.7377 61.1982L24.9999 55.0048ZM77.7725 82.801L81.0346 76.6076L28.262 48.8114L24.9999 55.0048L21.7377 61.1982L74.5103 88.9944L77.7725 82.801ZM24.9999 55.0048L28.3715 61.1393L81.1441 32.1345L77.7725 26L74.4008 19.8655L21.6282 48.8703L24.9999 55.0048Z" fill="url(#paint3_linear_800_1996)"/>
<path d="M109.597 82.801L162.37 55.0048L109.597 26" stroke="url(#paint4_linear_800_1996)" stroke-width="14" stroke-linecap="square" stroke-linejoin="bevel"/>
<path d="M77.7725 82.3982L109.194 26" stroke="url(#paint5_linear_800_1996)" stroke-width="14" stroke-linecap="square" stroke-linejoin="bevel"/>
<defs>
<linearGradient id="paint0_linear_800_1996" x1="135.984" y1="96.4978" x2="135.984" y2="39.6967" gradientUnits="userSpaceOnUse">
<stop stop-color="#F1F0EA"/>
<stop offset="1" stop-color="white"/>
</linearGradient>
<linearGradient id="paint1_linear_800_1996" x1="51.3862" y1="96.4978" x2="51.3862" y2="39.6967" gradientUnits="userSpaceOnUse">
<stop stop-color="#F1F0EA"/>
<stop offset="1" stop-color="#D3D0C1"/>
</linearGradient>
<linearGradient id="paint2_linear_800_1996" x1="93.8865" y1="40.0996" x2="93.8865" y2="96.4978" gradientUnits="userSpaceOnUse">
<stop stop-color="white"/>
<stop offset="1" stop-color="#F1F0EA"/>
</linearGradient>
<linearGradient id="paint3_linear_800_1996" x1="51.3862" y1="26" x2="51.3862" y2="82.801" gradientUnits="userSpaceOnUse">
<stop stop-color="#F1F0EA"/>
<stop offset="1" stop-color="white"/>
</linearGradient>
<linearGradient id="paint4_linear_800_1996" x1="135.984" y1="26" x2="135.984" y2="82.801" gradientUnits="userSpaceOnUse">
<stop stop-color="#F1F0EA"/>
<stop offset="1" stop-color="#D3D0C1"/>
</linearGradient>
<linearGradient id="paint5_linear_800_1996" x1="93.4834" y1="82.3982" x2="93.4834" y2="26" gradientUnits="userSpaceOnUse">
<stop stop-color="white"/>
<stop offset="1" stop-color="#F1F0EA"/>
</linearGradient>
</defs>
</svg>
