<svg width="431" height="124" viewBox="0 0 431 124" fill="none" xmlns="http://www.w3.org/2000/svg">
<path d="M212.728 47.656C224.184 47.656 233.528 56.936 233.528 68.456C233.528 79.912 224.184 89.256 212.728 89.256H197.432H196.92V47.656H197.048H212.728ZM220.664 76.392C222.776 74.28 223.928 71.464 223.928 68.456C223.928 65.448 222.776 62.632 220.664 60.456C218.552 58.344 215.672 57.192 212.664 57.192H206.904V79.656H212.728C215.736 79.656 218.552 78.504 220.664 76.392ZM249.454 44.392V51.944H240.558V44.392H249.454ZM249.518 56.104V89H240.558V56.104H249.518ZM284.282 56.04H294.65L279.354 89H272.57L256.57 56.04H267.002L275.962 74.472L284.282 56.04ZM311.625 56.04C320.713 55.976 328.138 63.336 328.138 72.424C328.201 81.512 320.906 88.936 311.817 89C302.665 89.064 295.241 81.704 295.241 72.616C295.177 63.528 302.473 56.104 311.625 56.04ZM317.449 78.248C318.986 76.712 319.817 74.664 319.817 72.488C319.817 70.312 318.921 68.264 317.385 66.728C315.849 65.256 313.802 64.424 311.625 64.424C309.449 64.424 307.465 65.256 305.929 66.792C304.393 68.392 303.561 70.376 303.561 72.552C303.561 74.728 304.457 76.776 305.993 78.312C307.529 79.848 309.577 80.68 311.753 80.68C313.929 80.616 315.977 79.784 317.449 78.248ZM369.41 89H360.45V85.224C357.634 87.528 353.986 89 350.018 89C340.93 89.064 333.506 81.704 333.442 72.616C333.378 63.528 340.738 56.104 349.826 56.04C353.858 56.04 357.506 57.448 360.386 59.816V44.328H369.346L369.41 89ZM355.714 78.248C357.25 76.712 358.082 74.664 358.082 72.488C358.018 70.312 357.186 68.264 355.65 66.728C354.114 65.256 352.066 64.424 349.89 64.424C347.714 64.424 345.666 65.256 344.13 66.792C342.658 68.392 341.762 70.376 341.826 72.552C341.826 74.728 342.658 76.776 344.194 78.312C345.73 79.848 347.778 80.68 349.954 80.68C352.13 80.616 354.178 79.784 355.714 78.248ZM408.164 72.424C408.164 72.872 408.228 75.112 408.164 75.56L384.1 75.496C384.548 76.776 384.996 77.352 385.956 78.312C387.556 79.848 389.604 80.68 391.716 80.68C393.892 80.616 395.94 79.784 397.476 78.248C397.54 78.184 397.668 78.056 397.732 77.992L406.052 80.616C402.596 85.928 398.948 88.936 391.78 89C382.692 89.064 375.268 81.704 375.204 72.616C375.14 63.528 382.5 56.104 391.588 56.04C400.676 55.976 408.1 63.336 408.164 72.424ZM391.652 64.424C389.476 64.424 387.428 65.256 385.892 66.792C385.188 67.56 384.548 68.456 384.164 69.48H399.204C398.82 68.456 398.18 67.56 397.412 66.728C395.876 65.256 393.828 64.424 391.652 64.424Z" fill="black"/>
<path d="M107.6 40.6971L160.374 68.4943L107.6 97.5" stroke="url(#paint0_linear_800_1854)" stroke-width="14" stroke-linejoin="bevel"/>
<path d="M75.7743 40.6971L23 68.4943L75.7743 97.5" stroke="url(#paint1_linear_800_1854)" stroke-width="14" stroke-linecap="square" stroke-linejoin="bevel"/>
<path d="M107.6 41.1L76.1771 97.5" stroke="url(#paint2_linear_800_1854)" stroke-width="14" stroke-linecap="square" stroke-linejoin="bevel"/>
<path d="M75.7743 83.8029L23 56.0057L75.7743 27" stroke="url(#paint3_linear_800_1854)" stroke-width="14" stroke-linejoin="bevel"/>
<path d="M107.6 83.8029L160.374 56.0057L107.6 27" stroke="url(#paint4_linear_800_1854)" stroke-width="14" stroke-linecap="square" stroke-linejoin="bevel"/>
<path d="M75.7743 83.4L107.197 27" stroke="url(#paint5_linear_800_1854)" stroke-width="14" stroke-linecap="square" stroke-linejoin="bevel"/>
<defs>
<linearGradient id="paint0_linear_800_1854" x1="133.987" y1="97.5" x2="133.987" y2="40.6971" gradientUnits="userSpaceOnUse">
<stop stop-color="#CF0501"/>
<stop offset="1" stop-color="#F58583"/>
</linearGradient>
<linearGradient id="paint1_linear_800_1854" x1="49.3872" y1="97.5" x2="49.3872" y2="40.6971" gradientUnits="userSpaceOnUse">
<stop stop-color="#CF0501"/>
<stop offset="1" stop-color="#930503"/>
</linearGradient>
<linearGradient id="paint2_linear_800_1854" x1="91.8886" y1="41.1" x2="91.8886" y2="97.5" gradientUnits="userSpaceOnUse">
<stop stop-color="#F58583"/>
<stop offset="1" stop-color="#CF0501"/>
</linearGradient>
<linearGradient id="paint3_linear_800_1854" x1="49.3871" y1="27" x2="49.3871" y2="83.8029" gradientUnits="userSpaceOnUse">
<stop stop-color="#CF0501"/>
<stop offset="1" stop-color="#F58583"/>
</linearGradient>
<linearGradient id="paint4_linear_800_1854" x1="133.987" y1="27" x2="133.987" y2="83.8029" gradientUnits="userSpaceOnUse">
<stop stop-color="#CF0501"/>
<stop offset="1" stop-color="#930503"/>
</linearGradient>
<linearGradient id="paint5_linear_800_1854" x1="91.4857" y1="83.4" x2="91.4857" y2="27" gradientUnits="userSpaceOnUse">
<stop stop-color="#F58583"/>
<stop offset="1" stop-color="#CF0501"/>
</linearGradient>
</defs>
</svg>
