<svg width="170" height="170" viewBox="0 0 170 170" fill="none" xmlns="http://www.w3.org/2000/svg">
<foreignObject x="-4" y="-4" width="174" height="174"><div xmlns="http://www.w3.org/1999/xhtml" style="backdrop-filter:blur(2px);clip-path:url(#bgblur_0_929_633_clip_path);height:100%;width:100%"></div></foreignObject><g opacity="0.7" filter="url(#filter0_d_929_633)" data-figma-bg-blur-radius="4">
<path d="M150 75C150 97.9278 150 92.5 150 150C79 150 98 150 0 150C0 77.5 0.00019455 116.421 0.00019455 75C0.00019455 33.5786 33.5788 0 75.0002 0C116.422 0 150 33.5786 150 75Z" fill="#2EBCE4"/>
</g>
<defs>
<filter id="filter0_d_929_633" x="-4" y="-4" width="174" height="174" filterUnits="userSpaceOnUse" color-interpolation-filters="sRGB">
<feFlood flood-opacity="0" result="BackgroundImageFix"/>
<feColorMatrix in="SourceAlpha" type="matrix" values="0 0 0 0 0 0 0 0 0 0 0 0 0 0 0 0 0 0 127 0" result="hardAlpha"/>
<feOffset dx="10" dy="10"/>
<feGaussianBlur stdDeviation="5"/>
<feComposite in2="hardAlpha" operator="out"/>
<feColorMatrix type="matrix" values="0 0 0 0 0 0 0 0 0 0 0 0 0 0 0 0 0 0 0.1 0"/>
<feBlend mode="normal" in2="BackgroundImageFix" result="effect1_dropShadow_929_633"/>
<feBlend mode="normal" in="SourceGraphic" in2="effect1_dropShadow_929_633" result="shape"/>
</filter>
<clipPath id="bgblur_0_929_633_clip_path" transform="translate(4 4)"><path d="M150 75C150 97.9278 150 92.5 150 150C79 150 98 150 0 150C0 77.5 0.00019455 116.421 0.00019455 75C0.00019455 33.5786 33.5788 0 75.0002 0C116.422 0 150 33.5786 150 75Z"/>
</clipPath></defs>
</svg>
