<svg width="161" height="161" viewBox="0 0 161 161" fill="none" xmlns="http://www.w3.org/2000/svg">
<foreignObject x="-4" y="-4" width="164.753" height="164.752"><div xmlns="http://www.w3.org/1999/xhtml" style="backdrop-filter:blur(2px);clip-path:url(#bgblur_0_845_913_clip_path);height:100%;width:100%"></div></foreignObject><g opacity="0.7" filter="url(#filter0_d_845_913)" data-figma-bg-blur-radius="4">
<path d="M50.1146 131.688C34.7944 122.071 38.4213 124.348 0.000219851 100.228C29.7821 52.7867 21.8123 65.4824 62.9197 -0.000414399C111.364 30.4106 85.3566 14.0847 113.034 31.4594C140.711 48.8341 149.063 85.3561 131.689 113.033C114.314 140.711 77.792 149.063 50.1146 131.688Z" fill="#E28280"/>
</g>
<defs>
<filter id="filter0_d_845_913" x="-4" y="-4" width="164.753" height="164.752" filterUnits="userSpaceOnUse" color-interpolation-filters="sRGB">
<feFlood flood-opacity="0" result="BackgroundImageFix"/>
<feColorMatrix in="SourceAlpha" type="matrix" values="0 0 0 0 0 0 0 0 0 0 0 0 0 0 0 0 0 0 127 0" result="hardAlpha"/>
<feOffset dx="10" dy="10"/>
<feGaussianBlur stdDeviation="5"/>
<feComposite in2="hardAlpha" operator="out"/>
<feColorMatrix type="matrix" values="0 0 0 0 0 0 0 0 0 0 0 0 0 0 0 0 0 0 0.1 0"/>
<feBlend mode="normal" in2="BackgroundImageFix" result="effect1_dropShadow_845_913"/>
<feBlend mode="normal" in="SourceGraphic" in2="effect1_dropShadow_845_913" result="shape"/>
</filter>
<clipPath id="bgblur_0_845_913_clip_path" transform="translate(4 4)"><path d="M50.1146 131.688C34.7944 122.071 38.4213 124.348 0.000219851 100.228C29.7821 52.7867 21.8123 65.4824 62.9197 -0.000414399C111.364 30.4106 85.3566 14.0847 113.034 31.4594C140.711 48.8341 149.063 85.3561 131.689 113.033C114.314 140.711 77.792 149.063 50.1146 131.688Z"/>
</clipPath></defs>
</svg>
