<svg width="431" height="100" viewBox="0 0 431 100" fill="none" xmlns="http://www.w3.org/2000/svg">
<path d="M203.728 28.2504C215.184 28.2504 224.528 37.5304 224.528 49.0504C224.528 60.5064 215.184 69.8504 203.728 69.8504H188.432H187.92V28.2504H188.048H203.728ZM211.664 56.9864C213.776 54.8744 214.928 52.0584 214.928 49.0504C214.928 46.0424 213.776 43.2264 211.664 41.0504C209.552 38.9384 206.672 37.7864 203.664 37.7864H197.904V60.2504H203.728C206.736 60.2504 209.552 59.0984 211.664 56.9864ZM240.454 24.9864V32.5384H231.558V24.9864H240.454ZM240.518 36.6984V69.5944H231.558V36.6984H240.518ZM275.282 36.6344H285.65L270.354 69.5944H263.57L247.57 36.6344H258.002L266.962 55.0664L275.282 36.6344ZM302.625 36.6344C311.713 36.5704 319.138 43.9304 319.138 53.0184C319.201 62.1064 311.906 69.5304 302.817 69.5944C293.665 69.6584 286.241 62.2984 286.241 53.2104C286.177 44.1224 293.473 36.6984 302.625 36.6344ZM308.449 58.8424C309.986 57.3064 310.817 55.2584 310.817 53.0824C310.817 50.9064 309.921 48.8584 308.385 47.3224C306.849 45.8504 304.802 45.0184 302.625 45.0184C300.449 45.0184 298.465 45.8504 296.929 47.3864C295.393 48.9864 294.561 50.9704 294.561 53.1464C294.561 55.3224 295.457 57.3704 296.993 58.9064C298.529 60.4424 300.577 61.2744 302.753 61.2744C304.929 61.2104 306.977 60.3784 308.449 58.8424ZM360.41 69.5944H351.45V65.8184C348.634 68.1224 344.986 69.5944 341.018 69.5944C331.93 69.6584 324.506 62.2984 324.442 53.2104C324.378 44.1224 331.738 36.6984 340.826 36.6344C344.858 36.6344 348.506 38.0424 351.386 40.4104V24.9224H360.346L360.41 69.5944ZM346.714 58.8424C348.25 57.3064 349.082 55.2584 349.082 53.0824C349.018 50.9064 348.186 48.8584 346.65 47.3224C345.114 45.8504 343.066 45.0184 340.89 45.0184C338.714 45.0184 336.666 45.8504 335.13 47.3864C333.658 48.9864 332.762 50.9704 332.826 53.1464C332.826 55.3224 333.658 57.3704 335.194 58.9064C336.73 60.4424 338.778 61.2744 340.954 61.2744C343.13 61.2104 345.178 60.3784 346.714 58.8424ZM399.164 53.0184C399.164 53.4664 399.228 55.7064 399.164 56.1544L375.1 56.0904C375.548 57.3704 375.996 57.9464 376.956 58.9064C378.556 60.4424 380.604 61.2744 382.716 61.2744C384.892 61.2104 386.94 60.3784 388.476 58.8424C388.54 58.7784 388.668 58.6504 388.732 58.5864L397.052 61.2104C393.596 66.5224 389.948 69.5304 382.78 69.5944C373.692 69.6584 366.268 62.2984 366.204 53.2104C366.14 44.1224 373.5 36.6984 382.588 36.6344C391.676 36.5704 399.1 43.9304 399.164 53.0184ZM382.652 45.0184C380.476 45.0184 378.428 45.8504 376.892 47.3864C376.188 48.1544 375.548 49.0504 375.164 50.0744H390.204C389.82 49.0504 389.18 48.1544 388.412 47.3224C386.876 45.8504 384.828 45.0184 382.652 45.0184Z" fill="black"/>
<path d="M98.6 28.4471L151.374 56.2443L98.6 85.25" stroke="url(#paint0_linear_868_669)" stroke-width="14" stroke-linejoin="bevel"/>
<path d="M66.7743 28.4471L14 56.2443L66.7743 85.25" stroke="url(#paint1_linear_868_669)" stroke-width="14" stroke-linecap="square" stroke-linejoin="bevel"/>
<path d="M98.6 28.85L67.1771 85.25" stroke="url(#paint2_linear_868_669)" stroke-width="14" stroke-linecap="square" stroke-linejoin="bevel"/>
<path d="M66.7743 71.5529L14 43.7557L66.7743 14.75" stroke="url(#paint3_linear_868_669)" stroke-width="14" stroke-linejoin="bevel"/>
<path d="M98.6 71.5529L151.374 43.7557L98.6 14.75" stroke="url(#paint4_linear_868_669)" stroke-width="14" stroke-linecap="square" stroke-linejoin="bevel"/>
<path d="M66.7743 71.15L98.1971 14.75" stroke="url(#paint5_linear_868_669)" stroke-width="14" stroke-linecap="square" stroke-linejoin="bevel"/>
<defs>
<linearGradient id="paint0_linear_868_669" x1="124.987" y1="85.25" x2="124.987" y2="28.4471" gradientUnits="userSpaceOnUse">
<stop stop-color="#CF0501"/>
<stop offset="1" stop-color="#F58583"/>
</linearGradient>
<linearGradient id="paint1_linear_868_669" x1="40.3872" y1="85.25" x2="40.3872" y2="28.4471" gradientUnits="userSpaceOnUse">
<stop stop-color="#CF0501"/>
<stop offset="1" stop-color="#930503"/>
</linearGradient>
<linearGradient id="paint2_linear_868_669" x1="82.8886" y1="28.85" x2="82.8886" y2="85.25" gradientUnits="userSpaceOnUse">
<stop stop-color="#F58583"/>
<stop offset="1" stop-color="#CF0501"/>
</linearGradient>
<linearGradient id="paint3_linear_868_669" x1="40.3871" y1="14.75" x2="40.3871" y2="71.5529" gradientUnits="userSpaceOnUse">
<stop stop-color="#CF0501"/>
<stop offset="1" stop-color="#F58583"/>
</linearGradient>
<linearGradient id="paint4_linear_868_669" x1="124.987" y1="14.75" x2="124.987" y2="71.5529" gradientUnits="userSpaceOnUse">
<stop stop-color="#CF0501"/>
<stop offset="1" stop-color="#930503"/>
</linearGradient>
<linearGradient id="paint5_linear_868_669" x1="82.4857" y1="71.15" x2="82.4857" y2="14.75" gradientUnits="userSpaceOnUse">
<stop stop-color="#F58583"/>
<stop offset="1" stop-color="#CF0501"/>
</linearGradient>
</defs>
</svg>
