<svg width="320" height="360" viewBox="0 0 320 360" fill="none" xmlns="http://www.w3.org/2000/svg">
<g clip-path="url(#clip0_845_1128)">
<path d="M181.41 277.386C257.951 277.386 320 215.291 320 138.693C320 62.095 257.951 0 181.41 0C104.869 0 42.8203 62.095 42.8203 138.693C42.8203 215.291 104.869 277.386 181.41 277.386Z" fill="#F2F2F2"/>
<path d="M271.976 62.0237H18.0987C17.5543 62.0121 17.1224 61.561 17.134 61.0161C17.1453 60.4877 17.5707 60.0621 18.0987 60.0508H271.976C272.521 60.0624 272.953 60.5135 272.941 61.0583C272.93 61.5867 272.504 62.0124 271.976 62.0237Z" fill="#CACACA"/>
<path d="M185.455 95.2686H115.274C110.002 95.2686 105.729 99.5451 105.729 104.82V104.82C105.729 110.096 110.002 114.372 115.274 114.372H185.455C190.727 114.372 195 110.096 195 104.82C195 99.5451 190.727 95.2686 185.455 95.2686Z" fill="white"/>
<path d="M69.9359 133.476H230.793C236.065 133.476 240.338 137.752 240.338 143.027C240.338 148.303 236.065 152.579 230.793 152.579H69.9359C64.6645 152.579 60.3911 148.303 60.3911 143.027C60.3911 137.752 64.6645 133.476 69.9359 133.476Z" fill="white"/>
<path d="M69.9359 171.684H230.793C236.065 171.684 240.338 175.96 240.338 181.235C240.338 186.511 236.065 190.787 230.793 190.787H69.9359C64.6645 190.787 60.3911 186.511 60.3911 181.235C60.3911 175.96 64.6645 171.684 69.9359 171.684Z" fill="white"/>
<path d="M50.0021 359.16L49.6235 359.122C36.779 357.796 25.1677 350.883 17.8742 340.22C15.8764 337.248 14.2605 334.037 13.0645 330.662L12.9495 330.34L13.2898 330.312C17.3531 329.985 21.5274 329.295 23.3817 328.967L11.4244 324.912L11.3505 324.557C10.6416 321.224 12.0304 317.795 14.858 315.896C17.6934 313.906 21.4532 313.842 24.3542 315.735C25.6561 316.567 27.0178 317.392 28.3345 318.189C32.8595 320.928 37.5386 323.76 41.0467 327.636C46.3664 333.63 48.6981 341.707 47.3924 349.617L50.0021 359.16Z" fill="#F2F2F2"/>
<path d="M93.4665 353.209L99.3593 353.209L102.163 330.46L93.4648 330.46L93.4665 353.209Z" fill="#A0616A"/>
<path d="M93.2586 359.361L111.381 359.36V359.131C111.381 355.232 108.223 352.072 104.327 352.072L101.017 349.559L94.8403 352.072L93.2583 352.072L93.2586 359.361Z" fill="#2F2E41"/>
<path d="M46.2373 336.874L50.951 340.413L66.8359 323.9L59.878 318.677L46.2373 336.874Z" fill="#A0616A"/>
<path d="M42.3813 341.67L56.8782 352.554L57.0157 352.37C59.3534 349.252 58.7224 344.827 55.6065 342.487L54.4653 338.489L48.0174 336.79L46.7519 335.84L42.3813 341.67Z" fill="#2F2E41"/>
<path d="M65.8275 246.455C65.8275 246.455 66.1528 255.336 66.5632 262.458C66.6305 263.626 63.896 264.895 63.9668 266.165C64.0138 267.008 64.5278 267.828 64.5755 268.707C64.6259 269.635 63.9163 270.456 63.9668 271.415C64.0162 272.353 64.8258 273.427 64.8746 274.387C65.4001 284.712 67.3052 297.073 65.3975 300.528C64.4574 302.231 52.4741 325.823 52.4741 325.823C52.4741 325.823 59.1508 335.845 61.0584 332.504C63.578 328.092 82.9961 307.448 82.9961 303.506C82.9961 299.569 87.4885 270.06 87.4885 270.06L90.621 287.523L92.0573 290.983L91.606 293.014L92.5342 295.755L92.5843 298.468L93.488 303.506C93.488 303.506 90.7697 342.756 92.3005 343.849C93.8362 344.947 101.271 346.918 102.149 344.947C103.021 342.976 108.702 303.983 108.702 303.983C108.702 303.983 109.618 286.115 110.61 269.506C110.667 268.542 111.344 267.377 111.397 266.428C111.459 265.325 111.029 263.893 111.087 262.824C111.149 261.598 111.692 260.734 111.745 259.56C112.15 250.487 109.875 239.439 109.15 238.351C106.961 235.067 104.991 232.442 104.991 232.442C104.991 232.442 75.5076 222.748 67.6291 232.599L65.8275 246.455Z" fill="#2F2E41"/>
<path d="M95.2332 155.13L83.5453 152.791L78.091 160.199C67.9136 170.213 67.7603 179.052 69.5771 193.22V213.104L68.2621 226.434C68.2621 226.434 63.6071 236.178 68.4083 238.446C73.2095 240.715 104.746 240.522 107.757 239.616C110.768 238.71 108.159 237.599 107.368 233.378C105.883 225.45 106.876 229.274 106.978 226.75C108.444 190.54 105.03 175.675 104.684 171.767L98.7396 160.979L95.2332 155.13Z" fill="#3F3D56"/>
<path d="M156.835 184.326C155.617 186.636 152.759 187.52 150.45 186.301C150.204 186.171 149.97 186.02 149.751 185.848L124.51 201.887L124.583 193.155L149.102 178.915C150.849 176.955 153.852 176.784 155.81 178.532C157.449 179.994 157.872 182.39 156.835 184.326Z" fill="#A0616A"/>
<path d="M86.0048 165.244L83.1312 164.939C80.4759 164.664 77.8708 165.802 76.2674 167.937C75.6533 168.747 75.2122 169.675 74.9716 170.663L74.9699 170.671C74.2491 173.644 75.3796 176.76 77.8388 178.578L87.764 185.901C94.7292 195.32 107.819 201.568 123.174 206.645L147.042 191.811L138.6 181.579L122.229 190.359L97.895 171.508L97.8809 171.497L88.6193 165.525L86.0048 165.244Z" fill="#3F3D56"/>
<path d="M91.284 149.387C98.8115 149.387 104.914 143.28 104.914 135.747C104.914 128.214 98.8115 122.107 91.284 122.107C83.7565 122.107 77.6543 128.214 77.6543 135.747C77.6543 143.28 83.7565 149.387 91.284 149.387Z" fill="#A0616A"/>
<path d="M91.5988 149.39C91.4889 149.393 91.3788 149.396 91.2688 149.399C91.2217 149.521 91.1709 149.642 91.1123 149.761L91.5988 149.39Z" fill="#2F2E41"/>
<path d="M95.3394 136.126C95.3607 136.26 95.3934 136.393 95.4371 136.522C95.4191 136.387 95.3863 136.254 95.3394 136.126Z" fill="#2F2E41"/>
<path d="M105.087 122.691C104.526 124.434 104.026 122.223 102.18 122.621C99.96 123.099 97.3765 122.935 95.5584 121.573C92.8495 119.584 89.3389 119.049 86.1608 120.14C83.0499 121.241 77.8381 122.018 77.0275 125.219C76.7457 126.331 76.6338 127.539 75.9509 128.461C75.3537 129.268 74.4113 129.727 73.6232 130.348C70.962 132.443 72.9959 138.396 74.2554 141.542C75.515 144.687 78.4042 146.979 81.5807 148.152C84.6541 149.288 87.9898 149.488 91.2685 149.399C91.8387 147.919 91.5924 146.21 91.1218 144.675C90.6124 143.014 89.8582 141.411 89.6454 139.687C89.4326 137.962 89.8999 136.003 91.3447 135.04C92.6727 134.154 94.8338 134.694 95.3391 136.126C95.0443 134.336 96.8563 132.603 98.7248 132.299C100.731 131.972 102.737 132.696 104.737 133.057C106.737 133.418 106.027 124.991 105.087 122.691Z" fill="#2F2E41"/>
<path d="M181.315 158.311C182.586 142.947 171.17 129.462 155.818 128.19C140.466 126.919 126.991 138.343 125.72 153.706C124.449 169.07 135.865 182.555 151.217 183.827C166.569 185.098 180.045 173.674 181.315 158.311Z" fill="#138184"/>
<path d="M160.844 144.378L153.517 151.71L146.19 144.378C145.004 143.191 143.081 143.191 141.895 144.378C140.709 145.564 140.709 147.489 141.895 148.676L149.222 156.008L141.895 163.34C140.71 164.528 140.712 166.453 141.899 167.639C143.085 168.823 145.005 168.823 146.19 167.639L153.517 160.306L160.844 167.639C162.031 168.824 163.954 168.823 165.139 167.635C166.323 166.448 166.323 164.527 165.139 163.34L157.812 156.008L165.139 148.676C166.325 147.489 166.325 145.564 165.139 144.378C163.953 143.191 162.03 143.191 160.844 144.378Z" fill="white"/>
<path d="M142.526 132.547C143.348 135.025 142.007 137.702 139.53 138.525C139.266 138.612 138.995 138.677 138.719 138.717L132.81 168.048L126.563 161.95L133.271 134.385C133.067 131.767 135.022 129.479 137.638 129.275C139.827 129.105 141.848 130.457 142.526 132.547Z" fill="#A0616A"/>
<path d="M79.73 170.486L77.5209 172.35C75.4839 174.077 74.5009 176.746 74.931 179.382C75.09 180.387 75.4536 181.347 75.9993 182.205L76.0038 182.212C77.6487 184.791 80.6783 186.132 83.6916 185.614L95.8432 183.516C107.457 185.007 121.025 179.88 135.316 172.306L141.143 144.801L127.921 143.813L122.918 161.714L92.4785 166.236L92.4606 166.238L81.7428 168.792L79.73 170.486Z" fill="#3F3D56"/>
<path d="M148.922 359.833L0.647573 360C0.288773 359.999 -0.00115871 359.707 3.48181e-06 359.348C0.00115476 358.991 0.290404 358.701 0.647573 358.7L148.922 358.532C149.281 358.533 149.571 358.825 149.57 359.184C149.569 359.542 149.28 359.831 148.922 359.833Z" fill="#CACACA"/>
<path d="M30.9789 49.527C33.5273 49.527 35.5931 47.4135 35.5931 44.8065C35.5931 42.1994 33.5273 40.0859 30.9789 40.0859C28.4306 40.0859 26.3647 42.1994 26.3647 44.8065C26.3647 47.4135 28.4306 49.527 30.9789 49.527Z" fill="#3F3D56"/>
<path d="M46.9189 49.527C49.4672 49.527 51.533 47.4135 51.533 44.8065C51.533 42.1994 49.4672 40.0859 46.9189 40.0859C44.3705 40.0859 42.3047 42.1994 42.3047 44.8065C42.3047 47.4135 44.3705 49.527 46.9189 49.527Z" fill="#3F3D56"/>
<path d="M62.8588 49.527C65.4071 49.527 67.473 47.4135 67.473 44.8065C67.473 42.1994 65.4071 40.0859 62.8588 40.0859C60.3105 40.0859 58.2446 42.1994 58.2446 44.8065C58.2446 47.4135 60.3105 49.527 62.8588 49.527Z" fill="#3F3D56"/>
<path d="M81.0346 48.5378C80.8928 48.5378 80.7514 48.4828 80.6445 48.3735L77.5311 45.1885C77.3236 44.9763 77.3236 44.6371 77.5311 44.4249L80.6445 41.2401C80.8558 41.0247 81.2016 41.0212 81.4161 41.2316C81.6316 41.4425 81.6354 41.7883 81.4246 42.0037L78.6845 44.8067L81.4246 47.6099C81.6353 47.8254 81.6316 48.1712 81.4161 48.3821C81.3101 48.486 81.1723 48.5378 81.0346 48.5378Z" fill="#3F3D56"/>
<path d="M86.2659 48.5372C86.1281 48.5372 85.9904 48.4855 85.8844 48.3815C85.6688 48.1706 85.6651 47.8251 85.8758 47.6094L88.6157 44.8061L85.8758 42.0032C85.6651 41.7877 85.6688 41.4419 85.8844 41.231C86.0994 41.0199 86.4452 41.0239 86.6559 41.2396L89.769 44.4243C89.9766 44.6366 89.9766 44.9757 89.769 45.1879L86.6559 48.373C86.5491 48.4823 86.4076 48.5372 86.2659 48.5372Z" fill="#3F3D56"/>
<path d="M249.142 40.6328H243.353C242.692 40.6328 242.158 41.1679 242.158 41.8286V47.6275C242.158 48.2882 242.692 48.8233 243.353 48.8233H249.142C249.802 48.8233 250.342 48.2882 250.342 47.6275V41.8286C250.342 41.1679 249.802 40.6328 249.142 40.6328Z" fill="#3F3D56"/>
<path d="M234.955 40.6328H229.166C228.506 40.6328 227.971 41.1679 227.971 41.8286V47.6275C227.971 48.2882 228.506 48.8233 229.166 48.8233H234.955C235.615 48.8233 236.156 48.2882 236.156 47.6275V41.8286C236.156 41.1679 235.615 40.6328 234.955 40.6328Z" fill="#3F3D56"/>
<path d="M262.51 40.9053H256.721C256.061 40.9053 255.526 41.4404 255.526 42.1011V47.9C255.526 48.5607 256.061 49.0958 256.721 49.0958H262.51C263.17 49.0958 263.71 48.5607 263.71 47.9V42.1011C263.71 41.4404 263.17 40.9053 262.51 40.9053Z" fill="#3F3D56"/>
<path d="M175.252 43.1113H128.977C128.169 43.1113 127.52 43.7666 127.52 44.5693C127.52 45.372 128.169 46.0272 128.977 46.0272H175.252C176.054 46.0272 176.709 45.3719 176.709 44.5693C176.709 43.7666 176.054 43.1113 175.252 43.1113Z" fill="#3F3D56"/>
</g>
<defs>
<clipPath id="clip0_845_1128">
<rect width="320" height="360" fill="white"/>
</clipPath>
</defs>
</svg>
