<svg width="301" height="342" viewBox="0 0 301 342" fill="none" xmlns="http://www.w3.org/2000/svg">
<g clip-path="url(#clip0_845_995)">
<path d="M193.514 253.206C194.19 253.568 194.96 253.712 195.72 253.621C196.481 253.529 197.195 253.206 197.766 252.695C198.336 252.184 198.736 251.509 198.911 250.762C199.086 250.016 199.028 249.233 198.744 248.521C198.82 248.142 198.875 247.87 198.951 247.491C200.412 246.126 202.248 245.228 204.222 244.914C206.196 244.599 208.219 244.882 210.032 245.726C211.844 246.57 213.364 247.937 214.395 249.651C215.427 251.366 215.924 253.349 215.822 255.348C215.359 266.62 215.916 278.783 208.432 287.871C242.588 259.928 258.161 212.327 247.731 169.514C242.613 162.374 240.225 152.889 242.52 144.293C245.401 147.098 251.015 146.345 250.157 141.49C249.697 139.571 249.221 137.658 248.76 135.739C268.433 128.054 273.569 157.338 250.266 169.262C252.156 177.401 253.192 185.716 253.355 194.071C255.986 186.538 260.365 179.737 266.134 174.228C271.719 169.194 279.103 166.234 285.973 162.856C294.333 158.736 303.611 166.905 300.319 175.626C294.755 174.913 290.817 181.572 295.867 185.151C286.997 200.064 269.99 209.543 252.71 209.694C250.963 226.71 245.612 243.158 237.016 257.942C248.055 241.138 269.417 245.976 286.3 245.26C287.42 245.119 288.557 245.307 289.572 245.801C290.587 246.296 291.437 247.075 292.017 248.045C292.597 249.015 292.883 250.132 292.839 251.262C292.796 252.391 292.425 253.484 291.772 254.406C289.551 254.275 287.323 254.366 285.12 254.676C284.083 254.83 283.12 255.301 282.362 256.024C281.603 256.748 281.087 257.688 280.883 258.717C280.68 259.745 280.799 260.812 281.224 261.77C281.65 262.728 282.361 263.531 283.261 264.069C268.451 277.661 245.503 280.583 227.492 271.91C222.167 278.625 216.159 284.768 209.566 290.239L182.789 277.461C182.835 277.117 182.895 276.769 182.95 276.43C185.355 277.768 187.913 278.807 190.57 279.523C187.713 268.622 184.53 262.236 193.513 253.206H193.514Z" fill="#F2F2F2"/>
<path d="M146.2 227.417C145.71 228.007 145.051 228.432 144.313 228.635C143.574 228.837 142.791 228.807 142.069 228.549C141.348 228.291 140.724 227.817 140.28 227.192C139.837 226.567 139.596 225.82 139.591 225.053C139.378 224.731 139.225 224.5 139.011 224.178C137.143 223.465 135.105 223.327 133.158 223.781C131.212 224.235 129.444 225.261 128.084 226.727C126.723 228.194 125.831 230.033 125.521 232.01C125.212 233.988 125.499 236.012 126.347 237.825C131.022 248.09 135.09 259.565 145.444 265.155C103.284 252.175 70.9255 213.971 64.4548 170.381C66.5047 161.836 65.1421 152.15 59.7779 145.056C58.1671 148.741 52.6833 150.164 51.6487 145.343C51.3521 143.393 51.0725 141.441 50.7758 139.49C29.6608 139.802 35.9376 168.863 62.0117 171.105C63.3277 179.357 65.5018 187.449 68.4985 195.249C63.2236 189.265 56.6051 184.62 49.1874 181.697C42.1184 179.144 34.1639 179.191 26.5288 178.657C17.2341 177.998 11.7194 189.067 18.0536 195.901C22.9389 193.139 29.0949 197.82 25.7662 203.041C39.5996 213.503 58.9218 215.859 74.9818 209.473C83.0116 224.573 94.1639 237.786 107.695 248.231C91.1408 236.837 73.1793 249.385 57.2742 255.097C56.1835 255.389 55.2013 255.993 54.4475 256.834C53.6936 257.675 53.2006 258.718 53.0285 259.835C52.8565 260.952 53.013 262.095 53.4788 263.125C53.9446 264.154 54.6996 265.026 55.6518 265.633C57.6595 264.674 59.7575 263.916 61.9148 263.372C62.9323 263.123 64.0019 263.195 64.9768 263.579C65.9518 263.962 66.7844 264.638 67.3605 265.514C67.9367 266.39 68.2282 267.423 68.195 268.471C68.1619 269.519 67.8057 270.531 67.1754 271.369C86.0123 278.364 108.366 272.404 121.779 257.57C129.24 261.778 137.119 265.199 145.287 267.776L165.271 245.83C165.099 245.529 164.912 245.229 164.733 244.936C163.011 247.084 161.032 249.012 158.842 250.679C157.38 239.503 157.922 232.387 146.2 227.417L146.2 227.417Z" fill="#F2F2F2"/>
<path d="M151.343 134.683C152.105 134.605 152.825 134.296 153.405 133.795C153.985 133.295 154.398 132.628 154.587 131.885C154.776 131.142 154.732 130.358 154.462 129.641C154.191 128.924 153.707 128.307 153.075 127.874C152.927 127.517 152.821 127.261 152.673 126.904C153.126 124.954 154.149 123.185 155.613 121.822C157.077 120.459 158.914 119.564 160.889 119.253C162.863 118.942 164.886 119.229 166.697 120.076C168.508 120.923 170.025 122.293 171.054 124.009C176.948 133.624 184.183 143.411 183.032 155.132C195.824 112.871 182.243 64.6618 149.74 34.9431C141.515 31.8728 134.251 25.3314 131.369 16.9149C135.322 17.6353 139.563 13.8758 136.147 10.3244C134.697 8.98856 133.236 7.66645 131.785 6.33048C143.836 -11.0303 164.409 10.413 151.704 33.3184C157.807 39.0202 163.297 45.345 168.086 52.1897C166.074 44.4673 165.922 36.3769 167.643 28.5842C169.475 21.2879 173.957 14.7085 177.779 8.06999C182.424 -0.0170269 194.676 1.58578 196.8 10.6627C191.784 13.1772 192.223 20.9034 198.409 21.0553C199.351 38.3863 190.511 55.7482 176.251 65.5185C184.277 80.6201 188.996 97.2609 190.093 114.332C189.898 94.2203 210.326 86.3125 223.942 76.2946C224.793 75.552 225.842 75.0735 226.96 74.9173C228.078 74.7611 229.218 74.9341 230.239 75.4152C231.261 75.8963 232.121 76.6646 232.714 77.6265C233.307 78.5883 233.607 79.7022 233.578 80.8321C231.662 81.9635 229.863 83.2826 228.207 84.7701C227.432 85.4761 226.895 86.4046 226.668 87.4285C226.441 88.4523 226.536 89.5213 226.94 90.4889C227.344 91.4565 228.037 92.2754 228.924 92.8333C229.811 93.3911 230.849 93.6607 231.895 93.6051C227.17 113.155 209.747 128.39 189.965 131.243C189.284 139.79 187.718 148.243 185.292 156.466L155.947 160.804C155.794 160.493 155.649 160.17 155.506 159.858C158.248 159.627 160.951 159.061 163.555 158.173C155.112 150.717 148.913 147.193 151.342 134.683L151.343 134.683Z" fill="#F2F2F2"/>
<path d="M180.857 125.263C167.497 125.263 160.251 123.628 157.72 120.139C155.487 117.061 156.984 113 158.718 108.297C159.963 104.917 161.375 101.086 161.375 97.2939C161.375 78.852 170.716 69.501 189.137 69.501C198.302 69.501 208.143 74.3752 215.461 82.5399C222.114 89.9623 225.429 98.8457 224.555 106.912C223.838 113.527 220.762 117.878 214.875 120.604L214.531 120.763L214.433 120.396C213.925 118.498 213.064 116.712 211.897 115.131C211.783 117.612 211.158 120.043 210.062 122.27L209.999 122.397L209.863 122.436C203.201 124.336 195.293 124.851 189.149 125.087C186.158 125.203 183.394 125.262 180.857 125.263Z" fill="#2F2E41"/>
<path d="M184.498 150.958C183.986 149.451 183.122 148.088 181.979 146.982C180.835 145.877 179.445 145.06 177.923 144.6C176.401 144.14 174.791 144.049 173.227 144.337C171.663 144.624 170.191 145.281 168.931 146.252L124.987 172.555L111.237 138.965C112.398 137.259 112.99 135.228 112.928 133.165C112.866 131.101 112.152 129.11 110.89 127.477C109.627 125.844 107.881 124.654 105.9 124.077C103.92 123.499 101.809 123.564 99.8678 124.263C97.927 124.961 96.257 126.257 95.0973 127.964C93.9376 129.672 93.3478 131.703 93.4125 133.767C93.4772 135.83 94.193 137.82 95.4574 139.452C96.7217 141.083 98.4696 142.271 100.45 142.847C101.298 152.533 106.008 195.826 122.393 194.253C136.166 192.93 170.37 170.125 180.993 162.218C182.693 160.954 183.948 159.183 184.578 157.16C185.208 155.136 185.18 152.965 184.498 150.958Z" fill="#FFB6B6"/>
<path d="M217.613 342H179.366L172.952 310.253L170.871 342H135.343C135.357 317.069 136.654 292.154 139.23 267.356L139.67 265.854L140.366 263.452L140.806 261.944L148.158 236.668L148.739 234.662H193.01C195.558 237.058 197.908 239.656 200.037 242.431C200.758 243.351 201.511 244.348 202.283 245.421C202.819 246.182 203.375 246.98 203.93 247.817C208.863 255.17 212.55 263.287 214.843 271.841V271.847C215.232 273.31 215.577 274.807 215.877 276.339V276.345C216.145 277.706 216.381 279.086 216.566 280.498C216.706 281.527 216.828 282.568 216.917 283.622C217.449 289.463 217.263 295.347 216.362 301.142L217.613 342Z" fill="#2F2E41"/>
<path d="M14.8278 51.7021C17.3116 50.7395 18.783 48.5569 18.1141 46.827C17.4452 45.0971 14.8894 44.4752 12.4056 45.4377C9.92175 46.4003 8.45043 48.583 9.11929 50.3129C9.78816 52.0427 12.3439 52.6647 14.8278 51.7021Z" fill="#E6E6E6"/>
<path d="M46.1012 47.6855C48.5851 46.7229 50.0564 44.5403 49.3875 42.8104C48.7187 41.0806 46.1629 40.4586 43.679 41.4211C41.1952 42.3837 39.7239 44.5664 40.3927 46.2963C41.0616 48.0261 43.6174 48.6481 46.1012 47.6855Z" fill="#3F3D56"/>
<path d="M12.1154 78.414C14.5992 77.4514 16.0706 75.2688 15.4017 73.5389C14.7328 71.8091 12.1771 71.1871 9.69321 72.1497C7.20936 73.1122 5.73802 75.2949 6.40689 77.0248C7.07576 78.7546 9.63154 79.3766 12.1154 78.414Z" fill="#FF6584"/>
<path d="M3.06787 90.1968C4.20738 89.9268 4.81685 88.3785 4.42914 86.7386C4.04142 85.0987 2.80335 83.9881 1.66384 84.2582C0.524337 84.5282 -0.0851111 86.0765 0.3026 87.7164C0.690311 89.3563 1.92836 90.4668 3.06787 90.1968Z" fill="#E6E6E6"/>
<path d="M2.88184 110.145C4.02134 109.875 4.63079 108.327 4.24308 106.687C3.85537 105.047 2.61732 103.936 1.47781 104.206C0.338302 104.476 -0.271146 106.025 0.116565 107.665C0.504276 109.305 1.74233 110.415 2.88184 110.145Z" fill="#3F3D56"/>
<path d="M30.3301 68.8267C31.4696 68.5566 32.079 67.0083 31.6913 65.3684C31.3036 63.7285 30.0656 62.618 28.9261 62.888C27.7865 63.1581 27.1771 64.7063 27.5648 66.3463C27.9525 67.9862 29.1906 69.0967 30.3301 68.8267Z" fill="#E6E6E6"/>
<path d="M13.8589 64.8228C14.9984 64.5528 15.6078 63.0044 15.2201 61.3645C14.8324 59.7246 13.5944 58.6141 12.4549 58.8841C11.3154 59.1542 10.7059 60.7025 11.0936 62.3424C11.4813 63.9823 12.7194 65.0928 13.8589 64.8228Z" fill="#FF6584"/>
<path d="M31.3169 46.4536C32.4564 46.1836 33.0658 44.6353 32.6781 42.9954C32.2904 41.3555 31.0524 40.245 29.9129 40.515C28.7734 40.785 28.1639 42.3333 28.5516 43.9732C28.9393 45.6131 30.1774 46.7236 31.3169 46.4536Z" fill="#3F3D56"/>
<path d="M39.4367 184.522C40.6377 183.109 39.9671 180.563 37.9389 178.835C35.9108 177.106 33.293 176.85 32.092 178.263C30.8911 179.675 31.5617 182.221 33.5898 183.95C35.618 185.678 38.2358 185.934 39.4367 184.522Z" fill="#E6E6E6"/>
<path d="M21.0178 158.902C22.2188 157.489 21.5482 154.943 19.52 153.215C17.4918 151.486 14.8741 151.23 13.6731 152.643C12.4721 154.055 13.1427 156.601 15.1709 158.33C17.1991 160.058 19.8168 160.314 21.0178 158.902Z" fill="#3F3D56"/>
<path d="M64.1911 174.191C65.3921 172.778 64.7215 170.232 62.6933 168.504C60.6652 166.775 58.0474 166.519 56.8464 167.932C55.6455 169.344 56.316 171.89 58.3442 173.619C60.3724 175.347 62.9902 175.603 64.1911 174.191Z" fill="#FF6584"/>
<path d="M76.4887 174.473C77.7445 173.351 78.1305 171.732 77.3507 170.858C76.571 169.983 74.9208 170.184 73.665 171.306C72.4092 172.428 72.0232 174.047 72.803 174.922C73.5827 175.796 75.2329 175.595 76.4887 174.473Z" fill="#E6E6E6"/>
<path d="M94.0995 165.139C95.3554 164.017 95.7413 162.398 94.9616 161.524C94.1818 160.649 92.5317 160.85 91.2758 161.972C90.02 163.094 89.6341 164.713 90.4138 165.588C91.1936 166.462 92.8437 166.261 94.0995 165.139Z" fill="#3F3D56"/>
<path d="M44.7373 160.648C45.9931 159.526 46.379 157.907 45.5993 157.033C44.8195 156.158 43.1694 156.359 41.9135 157.481C40.6577 158.603 40.2718 160.222 41.0515 161.096C41.8313 161.971 43.4814 161.77 44.7373 160.648Z" fill="#E6E6E6"/>
<path d="M49.0629 177.055C50.3188 175.933 50.7047 174.314 49.925 173.44C49.1452 172.565 47.4951 172.766 46.2392 173.888C44.9834 175.01 44.5974 176.629 45.3772 177.504C46.1569 178.378 47.8071 178.177 49.0629 177.055Z" fill="#FF6584"/>
<path d="M24.6152 170.432C25.871 169.31 26.2569 167.691 25.4772 166.817C24.6975 165.942 23.0473 166.143 21.7915 167.265C20.5356 168.387 20.1497 170.006 20.9294 170.881C21.7092 171.755 23.3593 171.554 24.6152 170.432Z" fill="#3F3D56"/>
<path d="M163.173 20.2042C164.836 19.3856 165.231 16.7823 164.056 14.3895C162.88 11.9967 160.579 10.7206 158.917 11.5393C157.254 12.3579 156.859 14.9612 158.035 17.354C159.21 19.7467 161.511 21.0229 163.173 20.2042Z" fill="#E6E6E6"/>
<path d="M169.91 51.0412C171.573 50.2225 171.968 47.6192 170.792 45.2264C169.617 42.8336 167.316 41.5575 165.654 42.3762C163.991 43.1948 163.596 45.7981 164.771 48.1909C165.947 50.5837 168.247 51.8598 169.91 51.0412Z" fill="#3F3D56"/>
<path d="M136.357 19.84C138.02 19.0213 138.415 16.418 137.239 14.0252C136.064 11.6325 133.763 10.3564 132.1 11.175C130.438 11.9936 130.043 14.597 131.218 16.9897C132.394 19.3825 134.694 20.6586 136.357 19.84Z" fill="#FF6584"/>
<path d="M122.261 10.0538C123.859 9.52341 124.855 8.19142 124.487 7.07867C124.118 5.96591 122.524 5.49375 120.927 6.0241C119.329 6.55444 118.332 7.88645 118.701 8.99921C119.069 10.112 120.663 10.5841 122.261 10.0538Z" fill="#E6E6E6"/>
<path d="M102.395 11.6163C103.993 11.0859 104.99 9.75391 104.621 8.64116C104.253 7.5284 102.659 7.05626 101.061 7.58661C99.4632 8.11696 98.4667 9.44894 98.8352 10.5617C99.2037 11.6745 100.798 12.1466 102.395 11.6163Z" fill="#3F3D56"/>
<path d="M145.914 35.3692C147.511 34.8388 148.508 33.5068 148.139 32.3941C147.771 31.2813 146.177 30.8092 144.579 31.3395C142.981 31.8699 141.985 33.2019 142.353 34.3146C142.722 35.4274 144.316 35.8995 145.914 35.3692Z" fill="#E6E6E6"/>
<path d="M148.455 18.5928C150.052 18.0625 151.049 16.7305 150.68 15.6177C150.312 14.5049 148.718 14.0328 147.12 14.5632C145.522 15.0935 144.526 16.4255 144.894 17.5383C145.263 18.651 146.857 19.1232 148.455 18.5928Z" fill="#FF6584"/>
<path d="M168.262 34.3936C169.86 33.8632 170.856 32.5312 170.488 31.4185C170.119 30.3057 168.525 29.8336 166.928 30.3639C165.33 30.8943 164.333 32.2263 164.702 33.339C165.07 34.4518 166.664 34.9239 168.262 34.3936Z" fill="#3F3D56"/>
<path d="M174.396 130.397L195.466 129.311L205.253 144.792C205.253 144.792 223.667 147.874 222.39 169.598C221.114 191.321 199.986 210.383 199.986 210.383L200.889 221.696L199.321 226.183L199.522 228.702L201.662 231.37L201.882 234.13L199.986 238.496L202.564 242.676L148.36 237.418L146.378 230.19L149.269 226.308L147.654 221.245L150.082 216.375L151.348 200.906C151.348 200.906 137.497 180.072 153.398 164.381L159.78 153.519L166.921 144.797L174.396 130.397Z" fill="#138184"/>
<path d="M184.87 126.025C197.201 126.025 207.197 116.018 207.197 103.673C207.197 91.3287 197.201 81.3213 184.87 81.3213C172.539 81.3213 162.543 91.3287 162.543 103.673C162.543 116.018 172.539 126.025 184.87 126.025Z" fill="#FFB6B6"/>
<path d="M181.881 102.318C179.957 102.318 178.034 102.264 176.112 102.155L175.769 102.136L175.814 101.794C176.097 99.6609 175.938 97.4919 175.346 95.4228C174.341 97.7787 172.846 99.8931 170.96 101.625L170.853 101.722L170.71 101.707C165.49 101.135 160.318 100.191 155.233 98.881L155.039 98.831L155 98.6339C154.62 96.7668 154.423 94.867 154.413 92.9616C154.413 87.0095 156.568 81.9998 160.482 78.8555C164.742 75.4328 170.849 74.3802 177.684 75.8899H199.539C201.942 75.8926 204.245 76.8493 205.944 78.5502C207.643 80.2511 208.599 82.5572 208.602 84.9626V98.8182L208.363 98.8806C199.719 101.155 190.819 102.31 181.881 102.318Z" fill="#2F2E41"/>
<path d="M29.5356 77.4553C28.5573 77.8136 27.7608 78.5457 27.321 79.4911C26.8811 80.4365 26.8338 81.518 27.1894 82.4982L50.7664 147.265C51.1241 148.244 51.8554 149.042 52.7997 149.482C53.744 149.922 54.8243 149.97 55.8034 149.614L147.31 116.227C148.288 115.869 149.084 115.137 149.524 114.191C149.964 113.246 150.011 112.164 149.656 111.184L126.079 46.4176C125.721 45.4381 124.99 44.6407 124.045 44.2003C123.101 43.76 122.021 43.7126 121.042 44.0686L29.5356 77.4553Z" fill="#CCCCCC"/>
<path d="M113.253 125.082L57.2419 145.519C56.188 145.902 55.0254 145.851 54.009 145.377C52.9927 144.903 52.2056 144.045 51.8206 142.99L30.4365 84.2478C30.0537 83.1927 30.1046 82.0287 30.578 81.0112C31.0514 79.9937 31.9086 79.2057 32.9616 78.8202L119.297 47.32C120.351 46.9369 121.513 46.9878 122.53 47.4618C123.546 47.9358 124.333 48.794 124.718 49.8482L135.051 78.2321C138.355 87.3393 137.915 97.3866 133.828 106.17C129.742 114.953 122.342 121.754 113.253 125.082Z" fill="white"/>
<path d="M72.9499 82.6455L59.6398 87.5018C59.4729 87.5627 59.2956 87.5901 59.1181 87.5824C58.9406 87.5747 58.7664 87.5321 58.6053 87.457C58.4443 87.3819 58.2996 87.2758 58.1795 87.1447C58.0595 87.0136 57.9663 86.8601 57.9055 86.693C57.8447 86.5259 57.8173 86.3485 57.825 86.1708C57.8327 85.9931 57.8752 85.8186 57.9502 85.6574C58.0253 85.4962 58.1313 85.3513 58.2622 85.2311C58.3931 85.1109 58.5464 85.0177 58.7133 84.9568L72.0235 80.1004C72.3606 79.9774 72.7327 79.9935 73.0579 80.1452C73.3832 80.2969 73.6349 80.5717 73.7578 80.9092C73.8806 81.2467 73.8645 81.6192 73.7131 81.9448C73.5616 82.2704 73.287 82.5225 72.9499 82.6455Z" fill="#138184"/>
<path d="M104.682 76.9638L61.5344 92.7064C61.3674 92.7676 61.1901 92.7952 61.0124 92.7876C60.8348 92.7801 60.6604 92.7376 60.4992 92.6625C60.338 92.5875 60.1931 92.4813 60.0729 92.3502C59.9527 92.2191 59.8595 92.0655 59.7986 91.8982C59.7377 91.731 59.7103 91.5534 59.7181 91.3755C59.7258 91.1977 59.7685 91.0231 59.8437 90.8618C59.9188 90.7005 60.025 90.5556 60.1562 90.4355C60.2873 90.3153 60.4408 90.2221 60.608 90.1614L103.755 74.4188C103.922 74.3579 104.099 74.3305 104.277 74.3382C104.454 74.3459 104.628 74.3885 104.79 74.4636C104.951 74.5387 105.095 74.6448 105.215 74.7759C105.335 74.907 105.429 75.0604 105.489 75.2275C105.55 75.3946 105.578 75.5721 105.57 75.7498C105.562 75.9275 105.52 76.1019 105.445 76.2632C105.37 76.4244 105.264 76.5693 105.133 76.6895C105.002 76.8097 104.848 76.9029 104.682 76.9638Z" fill="#138184"/>
<path d="M106.856 82.9378L63.7092 98.6805C63.5422 98.7414 63.365 98.7687 63.1875 98.7611C63.01 98.7534 62.8357 98.7108 62.6747 98.6357C62.5136 98.5606 62.369 98.4544 62.2489 98.3234C62.1288 98.1923 62.0357 98.0388 61.9748 97.8717C61.914 97.7046 61.8867 97.5271 61.8943 97.3494C61.902 97.1717 61.9446 96.9973 62.0196 96.8361C62.0946 96.6749 62.2006 96.53 62.3315 96.4098C62.4625 96.2896 62.6158 96.1963 62.7827 96.1354L105.93 80.3928C106.267 80.2703 106.639 80.2868 106.963 80.4385C107.288 80.5903 107.54 80.8649 107.663 81.2021C107.785 81.5394 107.769 81.9116 107.618 82.237C107.467 82.5625 107.193 82.8145 106.856 82.9378Z" fill="#138184"/>
<path d="M109.031 88.9121L65.884 104.655C65.7171 104.716 65.5397 104.743 65.362 104.736C65.1844 104.728 65.01 104.686 64.8488 104.611C64.6876 104.536 64.5427 104.43 64.4225 104.298C64.3023 104.167 64.2091 104.014 64.1482 103.846C64.0873 103.679 64.06 103.502 64.0677 103.324C64.0754 103.146 64.1181 102.971 64.1933 102.81C64.2684 102.649 64.3746 102.504 64.5058 102.384C64.6369 102.264 64.7904 102.17 64.9576 102.11L108.105 86.367C108.272 86.3061 108.449 86.2787 108.626 86.2864C108.804 86.2941 108.978 86.3367 109.139 86.4118C109.3 86.4869 109.445 86.593 109.565 86.7241C109.685 86.8552 109.778 87.0087 109.839 87.1758C109.9 87.3429 109.927 87.5204 109.92 87.6981C109.912 87.8757 109.869 88.0502 109.794 88.2114C109.719 88.3727 109.613 88.5175 109.482 88.6377C109.351 88.7579 109.198 88.8512 109.031 88.9121Z" fill="#138184"/>
<path d="M111.206 94.8867L68.0588 110.629C67.7217 110.752 67.3495 110.736 67.0243 110.584C66.699 110.433 66.4473 110.158 66.3245 109.821C66.2016 109.483 66.2177 109.111 66.3692 108.785C66.5207 108.459 66.7952 108.207 67.1323 108.084L110.279 92.3416C110.446 92.2807 110.624 92.2533 110.801 92.261C110.979 92.2687 111.153 92.3113 111.314 92.3864C111.475 92.4615 111.62 92.5676 111.74 92.6987C111.86 92.8298 111.953 92.9833 112.014 93.1504C112.075 93.3175 112.102 93.495 112.094 93.6727C112.087 93.8504 112.044 94.0248 111.969 94.186C111.894 94.3473 111.788 94.4921 111.657 94.6123C111.526 94.7325 111.373 94.8258 111.206 94.8867Z" fill="#138184"/>
<path d="M248.112 111.479L224.489 168.074C223.481 170.469 221.573 172.371 219.176 173.37C216.78 174.369 214.087 174.384 211.68 173.413C210.434 172.911 209.304 172.16 208.358 171.206C207.411 170.252 206.669 169.115 206.176 167.864C205.683 166.614 205.45 165.276 205.49 163.932C205.531 162.588 205.844 161.267 206.411 160.048L232.75 102.012L247.27 66.0724C246.016 64.8196 245.177 63.2104 244.867 61.4636C244.558 59.7168 244.793 57.917 245.541 56.3086C246.289 54.7003 247.513 53.3615 249.048 52.4741C250.582 51.5866 252.352 51.1936 254.117 51.3484C255.883 51.5032 257.558 52.1983 258.915 53.3392C260.271 54.4802 261.245 56.0117 261.702 57.7257C262.159 59.4396 262.078 61.253 261.47 62.9194C260.862 64.5858 259.757 66.0244 258.304 67.0398L248.112 111.479Z" fill="#FFB6B6"/>
</g>
<defs>
<clipPath id="clip0_845_995">
<rect width="301" height="342" fill="white"/>
</clipPath>
</defs>
</svg>
