<svg id="svg-stage" xmlns="http://www.w3.org/2000/svg" viewBox="0 0 640 640">
<!--!Font Awesome Free 7.1.0 by @fontawesome - https://fontawesome.com License - https://fontawesome.com/license/free Copyright 2026 Fonticons, Inc.-->

    <path id="iconActive" d="M150 75C150 97.9278 150 92.5 150 150C79 150 98 150 0 150C0 77.5 0.00019455 116.421 0.00019455 75C0.00019455 33.5786 33.5788 0 75.0002 0C116.422 0 150 33.5786 150 75Z" fill="#CF050150" />
    <path id="pen" d="M437.5 91.1C452.5 73.9 474.2 64 497.1 64C540.7 64 576.1 99.4 576.1 143C576.1 165.8 566.2 187.6 549 202.6L347.7 377.8L337 367L273 303L262.2 292.3L437.5 91.1zM225.1 323C226 324 252 350 303 401L316.9 414.9L299.8 489.1C295.9 506.2 282.9 519.8 266 524.5L96.2 572L188.5 479.7C189.7 479.8 190.8 479.9 192 479.9C209.7 479.9 224 465.6 224 447.9C224 430.2 209.7 415.9 192 415.9C174.3 415.9 160 430.2 160 447.9C160 449.1 160.1 450.3 160.2 451.4L67.9 543.8L115.5 374C120.2 357.1 133.8 344.1 150.9 340.2L225.1 323z"/>
    <path id="object" d="M64 183.4C44.9 172.4 32 151.7 32 128C32 92.7 60.7 64 96 64C119.7 64 140.4 76.9 151.4 96L488.5 96C499.6 76.9 520.2 64 543.9 64C579.2 64 607.9 92.7 607.9 128C607.9 151.7 595 172.4 575.9 183.4L575.9 456.5C595 467.6 607.9 488.2 607.9 511.9C607.9 547.2 579.2 575.9 543.9 575.9C520.2 575.9 499.5 563 488.5 543.9L151.4 543.9C140.3 563 119.7 575.9 96 575.9C60.7 575.9 32 547.2 32 511.9C32 488.2 44.9 467.5 64 456.5L64 183.4zM512 183.4C502.3 177.8 494.2 169.7 488.6 160L151.4 160C145.8 169.7 137.7 177.8 128 183.4L128 456.5C137.7 462.1 145.8 470.2 151.4 479.9L488.5 479.9C494.1 470.2 502.2 462.1 511.9 456.5L511.9 183.4zM176 240C176 222.3 190.3 208 208 208L320 208C337.7 208 352 222.3 352 240L352 304C352 321.7 337.7 336 320 336L208 336C190.3 336 176 321.7 176 304L176 240zM288 384L320 384C364.2 384 400 348.2 400 304L432 304C449.7 304 464 318.3 464 336L464 400C464 417.7 449.7 432 432 432L320 432C302.3 432 288 417.7 288 400L288 384z"/>
    <path id="screwdriver" d="M102.8 57.3C108.2 51.9 116.6 51.1 123 55.3L241.9 134.5C250.8 140.4 256.1 150.4 256.1 161.1L256.1 210.7L346.9 301.5C380.2 286.5 420.8 292.6 448.1 320L574.2 446.1C592.9 464.8 592.9 495.2 574.2 514L514.1 574.1C495.4 592.8 465 592.8 446.2 574.1L320.1 448C292.7 420.6 286.6 380.1 301.6 346.8L210.8 256L161.2 256C150.5 256 140.5 250.7 134.6 241.8L55.4 122.9C51.2 116.6 52 108.1 57.4 102.7L102.8 57.3zM247.8 360.8C241.5 397.7 250.1 436.7 274 468L179.1 563C151 591.1 105.4 591.1 77.3 563C49.2 534.9 49.2 489.3 77.3 461.2L212.7 325.7L247.9 360.8zM416.1 64C436.2 64 455.5 67.7 473.2 74.5C483.2 78.3 485 91 477.5 98.6L420.8 155.3C417.8 158.3 416.1 162.4 416.1 166.6L416.1 208C416.1 216.8 423.3 224 432.1 224L473.5 224C477.7 224 481.8 222.3 484.8 219.3L541.5 162.6C549.1 155.1 561.8 156.9 565.6 166.9C572.4 184.6 576.1 203.9 576.1 224C576.1 267.2 558.9 306.3 531.1 335.1L482 286C448.9 253 403.5 240.3 360.9 247.6L304.1 190.8L304.1 161.1L303.9 156.1C303.1 143.7 299.5 131.8 293.4 121.2C322.8 86.2 366.8 64 416.1 63.9z"/>
    <path id="palette" d="M576 320C576 320.9 576 321.8 576 322.7C575.6 359.2 542.4 384 505.9 384L408 384C381.5 384 360 405.5 360 432C360 435.4 360.4 438.7 361 441.9C363.1 452.1 367.5 461.9 371.8 471.8C377.9 485.6 383.9 499.3 383.9 513.8C383.9 545.6 362.3 574.5 330.5 575.8C327 575.9 323.5 576 319.9 576C178.5 576 63.9 461.4 63.9 320C63.9 178.6 178.6 64 320 64C461.4 64 576 178.6 576 320zM192 352C192 334.3 177.7 320 160 320C142.3 320 128 334.3 128 352C128 369.7 142.3 384 160 384C177.7 384 192 369.7 192 352zM192 256C209.7 256 224 241.7 224 224C224 206.3 209.7 192 192 192C174.3 192 160 206.3 160 224C160 241.7 174.3 256 192 256zM352 160C352 142.3 337.7 128 320 128C302.3 128 288 142.3 288 160C288 177.7 302.3 192 320 192C337.7 192 352 177.7 352 160zM448 256C465.7 256 480 241.7 480 224C480 206.3 465.7 192 448 192C430.3 192 416 206.3 416 224C416 241.7 430.3 256 448 256z"/>
    <path id="code" d="M64 160C64 124.7 92.7 96 128 96L512 96C547.3 96 576 124.7 576 160L576 400L512 400L512 160L128 160L128 400L64 400L64 160zM0 467.2C0 456.6 8.6 448 19.2 448L620.8 448C631.4 448 640 456.6 640 467.2C640 509.6 605.6 544 563.2 544L76.8 544C34.4 544 0 509.6 0 467.2zM281 273L250 304L281 335C290.4 344.4 290.4 359.6 281 368.9C271.6 378.2 256.4 378.3 247.1 368.9L199.1 320.9C189.7 311.5 189.7 296.3 199.1 287L247.1 239C256.5 229.6 271.7 229.6 281 239C290.3 248.4 290.4 263.6 281 272.9zM393 239L441 287C450.4 296.4 450.4 311.6 441 320.9L393 368.9C383.6 378.3 368.4 378.3 359.1 368.9C349.8 359.5 349.7 344.3 359.1 335L390.1 304L359.1 273C349.7 263.6 349.7 248.4 359.1 239.1C368.5 229.8 383.7 229.7 393 239.1z"/>
    <path id="wifi" d="M320 160C229.1 160 146.8 196 86.3 254.6C73.6 266.9 53.3 266.6 41.1 253.9C28.9 241.2 29.1 220.9 41.8 208.7C113.7 138.9 211.9 96 320 96C428.1 96 526.3 138.9 598.3 208.7C611 221 611.3 241.3 599 253.9C586.7 266.5 566.4 266.9 553.8 254.6C493.2 196 410.9 160 320 160zM272 496C272 469.5 293.5 448 320 448C346.5 448 368 469.5 368 496C368 522.5 346.5 544 320 544C293.5 544 272 522.5 272 496zM200 390.2C188.3 403.5 168.1 404.7 154.8 393C141.5 381.3 140.3 361.1 152 347.8C193 301.4 253.1 272 320 272C386.9 272 447 301.4 488 347.8C499.7 361.1 498.4 381.3 485.2 393C472 404.7 451.7 403.4 440 390.2C410.6 356.9 367.8 336 320 336C272.2 336 229.4 356.9 200 390.2z"/>
</svg>