<svg width="191" height="191" viewBox="0 0 191 191" fill="none" xmlns="http://www.w3.org/2000/svg">
<foreignObject x="-4" y="-4" width="194.256" height="194.257"><div xmlns="http://www.w3.org/1999/xhtml" style="backdrop-filter:blur(2px);clip-path:url(#bgblur_0_835_1087_clip_path);height:100%;width:100%"></div></foreignObject><g opacity="0.7" filter="url(#filter0_d_835_1087)" data-figma-bg-blur-radius="4">
<path d="M145.984 50.7487C153.404 72.4427 151.648 67.3069 170.256 121.713C103.077 144.69 121.054 138.541 28.3283 170.257C4.86533 101.658 17.4615 138.485 4.05644 99.2929C-9.34866 60.1006 11.556 17.4621 50.7482 4.05696C89.9405 -9.34814 132.579 11.5565 145.984 50.7487Z" fill="#E28280"/>
</g>
<defs>
<filter id="filter0_d_835_1087" x="-4" y="-4" width="194.256" height="194.257" filterUnits="userSpaceOnUse" color-interpolation-filters="sRGB">
<feFlood flood-opacity="0" result="BackgroundImageFix"/>
<feColorMatrix in="SourceAlpha" type="matrix" values="0 0 0 0 0 0 0 0 0 0 0 0 0 0 0 0 0 0 127 0" result="hardAlpha"/>
<feOffset dx="10" dy="10"/>
<feGaussianBlur stdDeviation="5"/>
<feComposite in2="hardAlpha" operator="out"/>
<feColorMatrix type="matrix" values="0 0 0 0 0 0 0 0 0 0 0 0 0 0 0 0 0 0 0.1 0"/>
<feBlend mode="normal" in2="BackgroundImageFix" result="effect1_dropShadow_835_1087"/>
<feBlend mode="normal" in="SourceGraphic" in2="effect1_dropShadow_835_1087" result="shape"/>
</filter>
<clipPath id="bgblur_0_835_1087_clip_path" transform="translate(4 4)"><path d="M145.984 50.7487C153.404 72.4427 151.648 67.3069 170.256 121.713C103.077 144.69 121.054 138.541 28.3283 170.257C4.86533 101.658 17.4615 138.485 4.05644 99.2929C-9.34866 60.1006 11.556 17.4621 50.7482 4.05696C89.9405 -9.34814 132.579 11.5565 145.984 50.7487Z"/>
</clipPath></defs>
</svg>
